<svg xmlns="http://www.w3.org/2000/svg" xmlns:xlink="http://www.w3.org/1999/xlink" width="600" height="400" viewBox="0 0 2400 1600">
<defs>
  <clipPath id="clip950">
    <rect x="0" y="0" width="2400" height="1600"></rect>
  </clipPath>
</defs>
<path clip-path="url(#clip950)" d="M0 1600 L2400 1600 L2400 0 L0 0  Z" fill="#ffffff" fill-rule="evenodd" fill-opacity="1"></path>
<defs>
  <clipPath id="clip951">
    <rect x="480" y="0" width="1681" height="1600"></rect>
  </clipPath>
</defs>
<path clip-path="url(#clip950)" d="M251.372 1410.9 L2352.76 1410.9 L2352.76 47.2441 L251.372 47.2441  Z" fill="#ffffff" fill-rule="evenodd" fill-opacity="1"></path>
<defs>
  <clipPath id="clip952">
    <rect x="251" y="47" width="2102" height="1365"></rect>
  </clipPath>
</defs>
<polyline clip-path="url(#clip952)" style="stroke:#000000; stroke-linecap:round; stroke-linejoin:round; stroke-width:2; stroke-opacity:0.1; fill:none" points="251.372,1410.9 251.372,47.2441 "></polyline>
<polyline clip-path="url(#clip952)" style="stroke:#000000; stroke-linecap:round; stroke-linejoin:round; stroke-width:2; stroke-opacity:0.1; fill:none" points="671.649,1410.9 671.649,47.2441 "></polyline>
<polyline clip-path="url(#clip952)" style="stroke:#000000; stroke-linecap:round; stroke-linejoin:round; stroke-width:2; stroke-opacity:0.1; fill:none" points="1091.93,1410.9 1091.93,47.2441 "></polyline>
<polyline clip-path="url(#clip952)" style="stroke:#000000; stroke-linecap:round; stroke-linejoin:round; stroke-width:2; stroke-opacity:0.1; fill:none" points="1512.2,1410.9 1512.2,47.2441 "></polyline>
<polyline clip-path="url(#clip952)" style="stroke:#000000; stroke-linecap:round; stroke-linejoin:round; stroke-width:2; stroke-opacity:0.1; fill:none" points="1932.48,1410.9 1932.48,47.2441 "></polyline>
<polyline clip-path="url(#clip952)" style="stroke:#000000; stroke-linecap:round; stroke-linejoin:round; stroke-width:2; stroke-opacity:0.1; fill:none" points="2352.76,1410.9 2352.76,47.2441 "></polyline>
<polyline clip-path="url(#clip952)" style="stroke:#000000; stroke-linecap:round; stroke-linejoin:round; stroke-width:2; stroke-opacity:0.1; fill:none" points="251.372,1410.9 2352.76,1410.9 "></polyline>
<polyline clip-path="url(#clip952)" style="stroke:#000000; stroke-linecap:round; stroke-linejoin:round; stroke-width:2; stroke-opacity:0.1; fill:none" points="251.372,1069.98 2352.76,1069.98 "></polyline>
<polyline clip-path="url(#clip952)" style="stroke:#000000; stroke-linecap:round; stroke-linejoin:round; stroke-width:2; stroke-opacity:0.1; fill:none" points="251.372,729.07 2352.76,729.07 "></polyline>
<polyline clip-path="url(#clip952)" style="stroke:#000000; stroke-linecap:round; stroke-linejoin:round; stroke-width:2; stroke-opacity:0.1; fill:none" points="251.372,388.157 2352.76,388.157 "></polyline>
<polyline clip-path="url(#clip952)" style="stroke:#000000; stroke-linecap:round; stroke-linejoin:round; stroke-width:2; stroke-opacity:0.1; fill:none" points="251.372,47.2441 2352.76,47.2441 "></polyline>
<polyline clip-path="url(#clip950)" style="stroke:#000000; stroke-linecap:round; stroke-linejoin:round; stroke-width:4; stroke-opacity:1; fill:none" points="251.372,1410.9 2352.76,1410.9 "></polyline>
<polyline clip-path="url(#clip950)" style="stroke:#000000; stroke-linecap:round; stroke-linejoin:round; stroke-width:4; stroke-opacity:1; fill:none" points="251.372,1410.9 251.372,1392 "></polyline>
<polyline clip-path="url(#clip950)" style="stroke:#000000; stroke-linecap:round; stroke-linejoin:round; stroke-width:4; stroke-opacity:1; fill:none" points="671.649,1410.9 671.649,1392 "></polyline>
<polyline clip-path="url(#clip950)" style="stroke:#000000; stroke-linecap:round; stroke-linejoin:round; stroke-width:4; stroke-opacity:1; fill:none" points="1091.93,1410.9 1091.93,1392 "></polyline>
<polyline clip-path="url(#clip950)" style="stroke:#000000; stroke-linecap:round; stroke-linejoin:round; stroke-width:4; stroke-opacity:1; fill:none" points="1512.2,1410.9 1512.2,1392 "></polyline>
<polyline clip-path="url(#clip950)" style="stroke:#000000; stroke-linecap:round; stroke-linejoin:round; stroke-width:4; stroke-opacity:1; fill:none" points="1932.48,1410.9 1932.48,1392 "></polyline>
<polyline clip-path="url(#clip950)" style="stroke:#000000; stroke-linecap:round; stroke-linejoin:round; stroke-width:4; stroke-opacity:1; fill:none" points="2352.76,1410.9 2352.76,1392 "></polyline>
<path clip-path="url(#clip950)" d="M217.7 1485.02 L225.339 1485.02 L225.339 1458.66 L217.028 1460.32 L217.028 1456.06 L225.292 1454.4 L229.968 1454.4 L229.968 1485.02 L237.607 1485.02 L237.607 1488.96 L217.7 1488.96 L217.7 1485.02 Z" fill="#000000" fill-rule="nonzero" fill-opacity="1"></path><path clip-path="url(#clip950)" d="M257.051 1457.48 Q253.44 1457.48 251.612 1461.04 Q249.806 1464.58 249.806 1471.71 Q249.806 1478.82 251.612 1482.38 Q253.44 1485.92 257.051 1485.92 Q260.686 1485.92 262.491 1482.38 Q264.32 1478.82 264.32 1471.71 Q264.32 1464.58 262.491 1461.04 Q260.686 1457.48 257.051 1457.48 M257.051 1453.77 Q262.862 1453.77 265.917 1458.38 Q268.996 1462.96 268.996 1471.71 Q268.996 1480.44 265.917 1485.04 Q262.862 1489.63 257.051 1489.63 Q251.241 1489.63 248.163 1485.04 Q245.107 1480.44 245.107 1471.71 Q245.107 1462.96 248.163 1458.38 Q251.241 1453.77 257.051 1453.77 Z" fill="#000000" fill-rule="nonzero" fill-opacity="1"></path><path clip-path="url(#clip950)" d="M269.541 1458.35 L275.748 1458.35 L275.748 1436.93 L268.996 1438.28 L268.996 1434.82 L275.71 1433.47 L279.509 1433.47 L279.509 1458.35 L285.716 1458.35 L285.716 1461.55 L269.541 1461.55 L269.541 1458.35 Z" fill="#000000" fill-rule="nonzero" fill-opacity="1"></path><path clip-path="url(#clip950)" d="M637.422 1485.02 L645.061 1485.02 L645.061 1458.66 L636.75 1460.32 L636.75 1456.06 L645.014 1454.4 L649.69 1454.4 L649.69 1485.02 L657.329 1485.02 L657.329 1488.96 L637.422 1488.96 L637.422 1485.02 Z" fill="#000000" fill-rule="nonzero" fill-opacity="1"></path><path clip-path="url(#clip950)" d="M676.773 1457.48 Q673.162 1457.48 671.334 1461.04 Q669.528 1464.58 669.528 1471.71 Q669.528 1478.82 671.334 1482.38 Q673.162 1485.92 676.773 1485.92 Q680.408 1485.92 682.213 1482.38 Q684.042 1478.82 684.042 1471.71 Q684.042 1464.58 682.213 1461.04 Q680.408 1457.48 676.773 1457.48 M676.773 1453.77 Q682.583 1453.77 685.639 1458.38 Q688.718 1462.96 688.718 1471.71 Q688.718 1480.44 685.639 1485.04 Q682.583 1489.63 676.773 1489.63 Q670.963 1489.63 667.884 1485.04 Q664.829 1480.44 664.829 1471.71 Q664.829 1462.96 667.884 1458.38 Q670.963 1453.77 676.773 1453.77 Z" fill="#000000" fill-rule="nonzero" fill-opacity="1"></path><path clip-path="url(#clip950)" d="M693.288 1458.35 L706.547 1458.35 L706.547 1461.55 L688.718 1461.55 L688.718 1458.35 Q690.881 1456.11 694.605 1452.35 Q698.347 1448.57 699.306 1447.48 Q701.131 1445.43 701.846 1444.02 Q702.579 1442.59 702.579 1441.22 Q702.579 1438.98 700.999 1437.57 Q699.438 1436.16 696.918 1436.16 Q695.131 1436.16 693.138 1436.78 Q691.163 1437.4 688.906 1438.66 L688.906 1434.82 Q691.2 1433.9 693.194 1433.43 Q695.188 1432.96 696.843 1432.96 Q701.206 1432.96 703.802 1435.14 Q706.397 1437.32 706.397 1440.97 Q706.397 1442.7 705.739 1444.26 Q705.099 1445.8 703.388 1447.91 Q702.918 1448.46 700.397 1451.07 Q697.877 1453.67 693.288 1458.35 Z" fill="#000000" fill-rule="nonzero" fill-opacity="1"></path><path clip-path="url(#clip950)" d="M1057.37 1485.02 L1065.01 1485.02 L1065.01 1458.66 L1056.7 1460.32 L1056.7 1456.06 L1064.96 1454.4 L1069.64 1454.4 L1069.64 1485.02 L1077.28 1485.02 L1077.28 1488.96 L1057.37 1488.96 L1057.37 1485.02 Z" fill="#000000" fill-rule="nonzero" fill-opacity="1"></path><path clip-path="url(#clip950)" d="M1096.72 1457.48 Q1093.11 1457.48 1091.28 1461.04 Q1089.48 1464.58 1089.48 1471.71 Q1089.48 1478.82 1091.28 1482.38 Q1093.11 1485.92 1096.72 1485.92 Q1100.36 1485.92 1102.16 1482.38 Q1103.99 1478.82 1103.99 1471.71 Q1103.99 1464.58 1102.16 1461.04 Q1100.36 1457.48 1096.72 1457.48 M1096.72 1453.77 Q1102.53 1453.77 1105.59 1458.38 Q1108.67 1462.96 1108.67 1471.71 Q1108.67 1480.44 1105.59 1485.04 Q1102.53 1489.63 1096.72 1489.63 Q1090.91 1489.63 1087.83 1485.04 Q1084.78 1480.44 1084.78 1471.71 Q1084.78 1462.96 1087.83 1458.38 Q1090.91 1453.77 1096.72 1453.77 Z" fill="#000000" fill-rule="nonzero" fill-opacity="1"></path><path clip-path="url(#clip950)" d="M1121.36 1446.41 Q1124.09 1446.99 1125.61 1448.83 Q1127.15 1450.68 1127.15 1453.38 Q1127.15 1457.54 1124.29 1459.82 Q1121.44 1462.09 1116.17 1462.09 Q1114.4 1462.09 1112.52 1461.73 Q1110.66 1461.4 1108.67 1460.7 L1108.67 1457.03 Q1110.25 1457.95 1112.13 1458.42 Q1114.01 1458.89 1116.06 1458.89 Q1119.63 1458.89 1121.49 1457.48 Q1123.37 1456.07 1123.37 1453.38 Q1123.37 1450.9 1121.62 1449.51 Q1119.89 1448.1 1116.79 1448.1 L1113.52 1448.1 L1113.52 1444.98 L1116.94 1444.98 Q1119.74 1444.98 1121.23 1443.87 Q1122.71 1442.74 1122.71 1440.63 Q1122.71 1438.47 1121.17 1437.32 Q1119.65 1436.16 1116.79 1436.16 Q1115.23 1436.16 1113.44 1436.49 Q1111.66 1436.83 1109.51 1437.55 L1109.51 1434.16 Q1111.67 1433.56 1113.56 1433.26 Q1115.45 1432.96 1117.13 1432.96 Q1121.45 1432.96 1123.97 1434.93 Q1126.5 1436.89 1126.5 1440.24 Q1126.5 1442.57 1125.16 1444.19 Q1123.82 1445.79 1121.36 1446.41 Z" fill="#000000" fill-rule="nonzero" fill-opacity="1"></path><path clip-path="url(#clip950)" d="M1476.66 1485.02 L1484.3 1485.02 L1484.3 1458.66 L1475.99 1460.32 L1475.99 1456.06 L1484.25 1454.4 L1488.93 1454.4 L1488.93 1485.02 L1496.57 1485.02 L1496.57 1488.96 L1476.66 1488.96 L1476.66 1485.02 Z" fill="#000000" fill-rule="nonzero" fill-opacity="1"></path><path clip-path="url(#clip950)" d="M1516.01 1457.48 Q1512.4 1457.48 1510.57 1461.04 Q1508.76 1464.58 1508.76 1471.71 Q1508.76 1478.82 1510.57 1482.38 Q1512.4 1485.92 1516.01 1485.92 Q1519.64 1485.92 1521.45 1482.38 Q1523.28 1478.82 1523.28 1471.71 Q1523.28 1464.58 1521.45 1461.04 Q1519.64 1457.48 1516.01 1457.48 M1516.01 1453.77 Q1521.82 1453.77 1524.88 1458.38 Q1527.95 1462.96 1527.95 1471.71 Q1527.95 1480.44 1524.88 1485.04 Q1521.82 1489.63 1516.01 1489.63 Q1510.2 1489.63 1507.12 1485.04 Q1504.07 1480.44 1504.07 1471.71 Q1504.07 1462.96 1507.12 1458.38 Q1510.2 1453.77 1516.01 1453.77 Z" fill="#000000" fill-rule="nonzero" fill-opacity="1"></path><path clip-path="url(#clip950)" d="M1540.63 1436.78 L1531.04 1451.77 L1540.63 1451.77 L1540.63 1436.78 M1539.63 1433.47 L1544.41 1433.47 L1544.41 1451.77 L1548.42 1451.77 L1548.42 1454.93 L1544.41 1454.93 L1544.41 1461.55 L1540.63 1461.55 L1540.63 1454.93 L1527.95 1454.93 L1527.95 1451.26 L1539.63 1433.47 Z" fill="#000000" fill-rule="nonzero" fill-opacity="1"></path><path clip-path="url(#clip950)" d="M1898.08 1485.02 L1905.72 1485.02 L1905.72 1458.66 L1897.41 1460.32 L1897.41 1456.06 L1905.68 1454.4 L1910.35 1454.4 L1910.35 1485.02 L1917.99 1485.02 L1917.99 1488.96 L1898.08 1488.96 L1898.08 1485.02 Z" fill="#000000" fill-rule="nonzero" fill-opacity="1"></path><path clip-path="url(#clip950)" d="M1937.43 1457.48 Q1933.82 1457.48 1931.99 1461.04 Q1930.19 1464.58 1930.19 1471.71 Q1930.19 1478.82 1931.99 1482.38 Q1933.82 1485.92 1937.43 1485.92 Q1941.07 1485.92 1942.87 1482.38 Q1944.7 1478.82 1944.7 1471.71 Q1944.7 1464.58 1942.87 1461.04 Q1941.07 1457.48 1937.43 1457.48 M1937.43 1453.77 Q1943.24 1453.77 1946.3 1458.38 Q1949.38 1462.96 1949.38 1471.71 Q1949.38 1480.44 1946.3 1485.04 Q1943.24 1489.63 1937.43 1489.63 Q1931.62 1489.63 1928.55 1485.04 Q1925.49 1480.44 1925.49 1471.71 Q1925.49 1462.96 1928.55 1458.38 Q1931.62 1453.77 1937.43 1453.77 Z" fill="#000000" fill-rule="nonzero" fill-opacity="1"></path><path clip-path="url(#clip950)" d="M1950.56 1433.47 L1965.48 1433.47 L1965.48 1436.66 L1954.04 1436.66 L1954.04 1443.55 Q1954.87 1443.27 1955.7 1443.13 Q1956.53 1442.98 1957.35 1442.98 Q1962.06 1442.98 1964.8 1445.56 Q1967.55 1448.14 1967.55 1452.54 Q1967.55 1457.07 1964.73 1459.59 Q1961.9 1462.09 1956.77 1462.09 Q1955 1462.09 1953.16 1461.79 Q1951.33 1461.49 1949.38 1460.89 L1949.38 1457.07 Q1951.07 1457.99 1952.88 1458.44 Q1954.68 1458.89 1956.69 1458.89 Q1959.95 1458.89 1961.85 1457.18 Q1963.75 1455.47 1963.75 1452.54 Q1963.75 1449.6 1961.85 1447.89 Q1959.95 1446.18 1956.69 1446.18 Q1955.17 1446.18 1953.65 1446.52 Q1952.14 1446.86 1950.56 1447.57 L1950.56 1433.47 Z" fill="#000000" fill-rule="nonzero" fill-opacity="1"></path><path clip-path="url(#clip950)" d="M2317.75 1485.02 L2325.39 1485.02 L2325.39 1458.66 L2317.08 1460.32 L2317.08 1456.06 L2325.34 1454.4 L2330.02 1454.4 L2330.02 1485.02 L2337.66 1485.02 L2337.66 1488.96 L2317.75 1488.96 L2317.75 1485.02 Z" fill="#000000" fill-rule="nonzero" fill-opacity="1"></path><path clip-path="url(#clip950)" d="M2357.1 1457.48 Q2353.49 1457.48 2351.66 1461.04 Q2349.85 1464.58 2349.85 1471.71 Q2349.85 1478.82 2351.66 1482.38 Q2353.49 1485.92 2357.1 1485.92 Q2360.73 1485.92 2362.54 1482.38 Q2364.37 1478.82 2364.37 1471.71 Q2364.37 1464.58 2362.54 1461.04 Q2360.73 1457.48 2357.1 1457.48 M2357.1 1453.77 Q2362.91 1453.77 2365.97 1458.38 Q2369.04 1462.96 2369.04 1471.71 Q2369.04 1480.44 2365.97 1485.04 Q2362.91 1489.63 2357.1 1489.63 Q2351.29 1489.63 2348.21 1485.04 Q2345.16 1480.44 2345.16 1471.71 Q2345.16 1462.96 2348.21 1458.38 Q2351.29 1453.77 2357.1 1453.77 Z" fill="#000000" fill-rule="nonzero" fill-opacity="1"></path><path clip-path="url(#clip950)" d="M2379.07 1445.99 Q2376.51 1445.99 2375.01 1447.74 Q2373.52 1449.49 2373.52 1452.54 Q2373.52 1455.57 2375.01 1457.33 Q2376.51 1459.08 2379.07 1459.08 Q2381.63 1459.08 2383.11 1457.33 Q2384.62 1455.57 2384.62 1452.54 Q2384.62 1449.49 2383.11 1447.74 Q2381.63 1445.99 2379.07 1445.99 M2386.61 1434.09 L2386.61 1437.55 Q2385.18 1436.87 2383.71 1436.51 Q2382.27 1436.16 2380.84 1436.16 Q2377.08 1436.16 2375.08 1438.69 Q2373.11 1441.23 2372.82 1446.37 Q2373.93 1444.73 2375.61 1443.87 Q2377.28 1442.98 2379.29 1442.98 Q2383.53 1442.98 2385.97 1445.56 Q2388.43 1448.12 2388.43 1452.54 Q2388.43 1456.86 2385.88 1459.48 Q2383.32 1462.09 2379.07 1462.09 Q2374.2 1462.09 2371.62 1458.37 Q2369.04 1454.62 2369.04 1447.53 Q2369.04 1440.88 2372.2 1436.93 Q2375.36 1432.96 2380.69 1432.96 Q2382.12 1432.96 2383.56 1433.24 Q2385.03 1433.52 2386.61 1434.09 Z" fill="#000000" fill-rule="nonzero" fill-opacity="1"></path><path clip-path="url(#clip950)" d="M1039.43 1526.67 L1048.09 1526.67 L1069.16 1566.42 L1069.16 1526.67 L1075.4 1526.67 L1075.4 1574.19 L1066.74 1574.19 L1045.67 1534.43 L1045.67 1574.19 L1039.43 1574.19 L1039.43 1526.67 Z" fill="#000000" fill-rule="nonzero" fill-opacity="1"></path><path clip-path="url(#clip950)" d="M1087.33 1560.12 L1087.33 1538.54 L1093.19 1538.54 L1093.19 1559.89 Q1093.19 1564.96 1095.16 1567.5 Q1097.14 1570.02 1101.08 1570.02 Q1105.83 1570.02 1108.56 1566.99 Q1111.33 1563.97 1111.33 1558.75 L1111.33 1538.54 L1117.19 1538.54 L1117.19 1574.19 L1111.33 1574.19 L1111.33 1568.71 Q1109.2 1571.96 1106.37 1573.55 Q1103.57 1575.11 1099.84 1575.11 Q1093.7 1575.11 1090.52 1571.29 Q1087.33 1567.47 1087.33 1560.12 M1102.07 1537.68 L1102.07 1537.68 Z" fill="#000000" fill-rule="nonzero" fill-opacity="1"></path><path clip-path="url(#clip950)" d="M1157.01 1545.38 Q1159.2 1541.43 1162.26 1539.56 Q1165.31 1537.68 1169.45 1537.68 Q1175.02 1537.68 1178.04 1541.59 Q1181.07 1545.48 1181.07 1552.67 L1181.07 1574.19 L1175.18 1574.19 L1175.18 1552.86 Q1175.18 1547.74 1173.37 1545.25 Q1171.55 1542.77 1167.83 1542.77 Q1163.28 1542.77 1160.63 1545.79 Q1157.99 1548.82 1157.99 1554.04 L1157.99 1574.19 L1152.1 1574.19 L1152.1 1552.86 Q1152.1 1547.7 1150.29 1545.25 Q1148.48 1542.77 1144.69 1542.77 Q1140.2 1542.77 1137.56 1545.83 Q1134.92 1548.85 1134.92 1554.04 L1134.92 1574.19 L1129.03 1574.19 L1129.03 1538.54 L1134.92 1538.54 L1134.92 1544.08 Q1136.92 1540.8 1139.72 1539.24 Q1142.52 1537.68 1146.37 1537.68 Q1150.26 1537.68 1152.96 1539.65 Q1155.7 1541.62 1157.01 1545.38 Z" fill="#000000" fill-rule="nonzero" fill-opacity="1"></path><path clip-path="url(#clip950)" d="M1218.34 1556.39 Q1218.34 1549.93 1215.67 1546.27 Q1213.02 1542.58 1208.38 1542.58 Q1203.73 1542.58 1201.06 1546.27 Q1198.41 1549.93 1198.41 1556.39 Q1198.41 1562.85 1201.06 1566.55 Q1203.73 1570.21 1208.38 1570.21 Q1213.02 1570.21 1215.67 1566.55 Q1218.34 1562.85 1218.34 1556.39 M1198.41 1543.95 Q1200.26 1540.77 1203.06 1539.24 Q1205.89 1537.68 1209.81 1537.68 Q1216.3 1537.68 1220.34 1542.83 Q1224.42 1547.99 1224.42 1556.39 Q1224.42 1564.8 1220.34 1569.95 Q1216.3 1575.11 1209.81 1575.11 Q1205.89 1575.11 1203.06 1573.58 Q1200.26 1572.02 1198.41 1568.84 L1198.41 1574.19 L1192.53 1574.19 L1192.53 1524.66 L1198.41 1524.66 L1198.41 1543.95 Z" fill="#000000" fill-rule="nonzero" fill-opacity="1"></path><path clip-path="url(#clip950)" d="M1264.62 1554.9 L1264.62 1557.76 L1237.69 1557.76 Q1238.07 1563.81 1241.32 1566.99 Q1244.6 1570.14 1250.42 1570.14 Q1253.8 1570.14 1256.95 1569.32 Q1260.13 1568.49 1263.25 1566.83 L1263.25 1572.37 Q1260.1 1573.71 1256.79 1574.41 Q1253.48 1575.11 1250.07 1575.11 Q1241.54 1575.11 1236.55 1570.14 Q1231.58 1565.18 1231.58 1556.71 Q1231.58 1547.96 1236.29 1542.83 Q1241.03 1537.68 1249.05 1537.68 Q1256.25 1537.68 1260.42 1542.33 Q1264.62 1546.94 1264.62 1554.9 M1258.76 1553.18 Q1258.7 1548.37 1256.06 1545.51 Q1253.45 1542.64 1249.12 1542.64 Q1244.22 1542.64 1241.26 1545.41 Q1238.33 1548.18 1237.88 1553.21 L1258.76 1553.18 Z" fill="#000000" fill-rule="nonzero" fill-opacity="1"></path><path clip-path="url(#clip950)" d="M1294.89 1544.01 Q1293.9 1543.44 1292.72 1543.18 Q1291.58 1542.9 1290.18 1542.9 Q1285.21 1542.9 1282.54 1546.14 Q1279.9 1549.36 1279.9 1555.41 L1279.9 1574.19 L1274.01 1574.19 L1274.01 1538.54 L1279.9 1538.54 L1279.9 1544.08 Q1281.74 1540.83 1284.7 1539.27 Q1287.66 1537.68 1291.89 1537.68 Q1292.5 1537.68 1293.23 1537.77 Q1293.96 1537.84 1294.85 1538 L1294.89 1544.01 Z" fill="#000000" fill-rule="nonzero" fill-opacity="1"></path><path clip-path="url(#clip950)" d="M1335.56 1542.64 Q1330.85 1542.64 1328.12 1546.34 Q1325.38 1550 1325.38 1556.39 Q1325.38 1562.79 1328.08 1566.48 Q1330.82 1570.14 1335.56 1570.14 Q1340.24 1570.14 1342.98 1566.45 Q1345.72 1562.76 1345.72 1556.39 Q1345.72 1550.06 1342.98 1546.37 Q1340.24 1542.64 1335.56 1542.64 M1335.56 1537.68 Q1343.2 1537.68 1347.56 1542.64 Q1351.92 1547.61 1351.92 1556.39 Q1351.92 1565.15 1347.56 1570.14 Q1343.2 1575.11 1335.56 1575.11 Q1327.89 1575.11 1323.53 1570.14 Q1319.2 1565.15 1319.2 1556.39 Q1319.2 1547.61 1323.53 1542.64 Q1327.89 1537.68 1335.56 1537.68 Z" fill="#000000" fill-rule="nonzero" fill-opacity="1"></path><path clip-path="url(#clip950)" d="M1379.68 1524.66 L1379.68 1529.53 L1374.08 1529.53 Q1370.93 1529.53 1369.68 1530.8 Q1368.47 1532.08 1368.47 1535.39 L1368.47 1538.54 L1378.12 1538.54 L1378.12 1543.09 L1368.47 1543.09 L1368.47 1574.19 L1362.59 1574.19 L1362.59 1543.09 L1356.98 1543.09 L1356.98 1538.54 L1362.59 1538.54 L1362.59 1536.05 Q1362.59 1530.1 1365.36 1527.4 Q1368.12 1524.66 1374.14 1524.66 L1379.68 1524.66 Z" fill="#000000" fill-rule="nonzero" fill-opacity="1"></path><path clip-path="url(#clip950)" d="M1428.03 1539.59 L1428.03 1545.13 Q1425.54 1543.85 1422.87 1543.22 Q1420.2 1542.58 1417.33 1542.58 Q1412.97 1542.58 1410.77 1543.92 Q1408.61 1545.25 1408.61 1547.93 Q1408.61 1549.96 1410.17 1551.14 Q1411.73 1552.29 1416.44 1553.34 L1418.45 1553.78 Q1424.68 1555.12 1427.29 1557.57 Q1429.94 1559.99 1429.94 1564.35 Q1429.94 1569.32 1425.99 1572.21 Q1422.07 1575.11 1415.2 1575.11 Q1412.33 1575.11 1409.21 1574.54 Q1406.13 1573.99 1402.69 1572.88 L1402.69 1566.83 Q1405.94 1568.52 1409.09 1569.38 Q1412.24 1570.21 1415.33 1570.21 Q1419.46 1570.21 1421.69 1568.81 Q1423.92 1567.37 1423.92 1564.8 Q1423.92 1562.41 1422.3 1561.14 Q1420.7 1559.86 1415.26 1558.68 L1413.23 1558.21 Q1407.78 1557.06 1405.36 1554.71 Q1402.94 1552.32 1402.94 1548.18 Q1402.94 1543.15 1406.51 1540.42 Q1410.07 1537.68 1416.63 1537.68 Q1419.88 1537.68 1422.74 1538.16 Q1425.61 1538.63 1428.03 1539.59 Z" fill="#000000" fill-rule="nonzero" fill-opacity="1"></path><path clip-path="url(#clip950)" d="M1444.93 1568.84 L1444.93 1587.74 L1439.04 1587.74 L1439.04 1538.54 L1444.93 1538.54 L1444.93 1543.95 Q1446.77 1540.77 1449.57 1539.24 Q1452.41 1537.68 1456.32 1537.68 Q1462.81 1537.68 1466.86 1542.83 Q1470.93 1547.99 1470.93 1556.39 Q1470.93 1564.8 1466.86 1569.95 Q1462.81 1575.11 1456.32 1575.11 Q1452.41 1575.11 1449.57 1573.58 Q1446.77 1572.02 1444.93 1568.84 M1464.85 1556.39 Q1464.85 1549.93 1462.18 1546.27 Q1459.54 1542.58 1454.89 1542.58 Q1450.24 1542.58 1447.57 1546.27 Q1444.93 1549.93 1444.93 1556.39 Q1444.93 1562.85 1447.57 1566.55 Q1450.24 1570.21 1454.89 1570.21 Q1459.54 1570.21 1462.18 1566.55 Q1464.85 1562.85 1464.85 1556.39 Z" fill="#000000" fill-rule="nonzero" fill-opacity="1"></path><path clip-path="url(#clip950)" d="M1480.64 1538.54 L1486.49 1538.54 L1486.49 1574.19 L1480.64 1574.19 L1480.64 1538.54 M1480.64 1524.66 L1486.49 1524.66 L1486.49 1532.08 L1480.64 1532.08 L1480.64 1524.66 Z" fill="#000000" fill-rule="nonzero" fill-opacity="1"></path><path clip-path="url(#clip950)" d="M1528.38 1552.67 L1528.38 1574.19 L1522.52 1574.19 L1522.52 1552.86 Q1522.52 1547.8 1520.55 1545.29 Q1518.58 1542.77 1514.63 1542.77 Q1509.89 1542.77 1507.15 1545.79 Q1504.41 1548.82 1504.41 1554.04 L1504.41 1574.19 L1498.53 1574.19 L1498.53 1538.54 L1504.41 1538.54 L1504.41 1544.08 Q1506.51 1540.86 1509.35 1539.27 Q1512.21 1537.68 1515.94 1537.68 Q1522.08 1537.68 1525.23 1541.5 Q1528.38 1545.29 1528.38 1552.67 Z" fill="#000000" fill-rule="nonzero" fill-opacity="1"></path><path clip-path="url(#clip950)" d="M1562.79 1539.59 L1562.79 1545.13 Q1560.3 1543.85 1557.63 1543.22 Q1554.96 1542.58 1552.09 1542.58 Q1547.73 1542.58 1545.54 1543.92 Q1543.37 1545.25 1543.37 1547.93 Q1543.37 1549.96 1544.93 1551.14 Q1546.49 1552.29 1551.2 1553.34 L1553.21 1553.78 Q1559.45 1555.12 1562.06 1557.57 Q1564.7 1559.99 1564.7 1564.35 Q1564.7 1569.32 1560.75 1572.21 Q1556.84 1575.11 1549.96 1575.11 Q1547.1 1575.11 1543.98 1574.54 Q1540.89 1573.99 1537.45 1572.88 L1537.45 1566.83 Q1540.7 1568.52 1543.85 1569.38 Q1547 1570.21 1550.09 1570.21 Q1554.23 1570.21 1556.45 1568.81 Q1558.68 1567.37 1558.68 1564.8 Q1558.68 1562.41 1557.06 1561.14 Q1555.47 1559.86 1550.02 1558.68 L1547.99 1558.21 Q1542.54 1557.06 1540.13 1554.71 Q1537.71 1552.32 1537.71 1548.18 Q1537.71 1543.15 1541.27 1540.42 Q1544.84 1537.68 1551.39 1537.68 Q1554.64 1537.68 1557.5 1538.16 Q1560.37 1538.63 1562.79 1539.59 Z" fill="#000000" fill-rule="nonzero" fill-opacity="1"></path><polyline clip-path="url(#clip950)" style="stroke:#000000; stroke-linecap:round; stroke-linejoin:round; stroke-width:4; stroke-opacity:1; fill:none" points="251.372,1410.9 251.372,47.2441 "></polyline>
<polyline clip-path="url(#clip950)" style="stroke:#000000; stroke-linecap:round; stroke-linejoin:round; stroke-width:4; stroke-opacity:1; fill:none" points="251.372,1410.9 270.27,1410.9 "></polyline>
<polyline clip-path="url(#clip950)" style="stroke:#000000; stroke-linecap:round; stroke-linejoin:round; stroke-width:4; stroke-opacity:1; fill:none" points="251.372,1069.98 270.27,1069.98 "></polyline>
<polyline clip-path="url(#clip950)" style="stroke:#000000; stroke-linecap:round; stroke-linejoin:round; stroke-width:4; stroke-opacity:1; fill:none" points="251.372,729.07 270.27,729.07 "></polyline>
<polyline clip-path="url(#clip950)" style="stroke:#000000; stroke-linecap:round; stroke-linejoin:round; stroke-width:4; stroke-opacity:1; fill:none" points="251.372,388.157 270.27,388.157 "></polyline>
<polyline clip-path="url(#clip950)" style="stroke:#000000; stroke-linecap:round; stroke-linejoin:round; stroke-width:4; stroke-opacity:1; fill:none" points="251.372,47.2441 270.27,47.2441 "></polyline>
<path clip-path="url(#clip950)" d="M114.931 1430.69 L122.57 1430.69 L122.57 1404.32 L114.26 1405.99 L114.26 1401.73 L122.524 1400.06 L127.2 1400.06 L127.2 1430.69 L134.839 1430.69 L134.839 1434.62 L114.931 1434.62 L114.931 1430.69 Z" fill="#000000" fill-rule="nonzero" fill-opacity="1"></path><path clip-path="url(#clip950)" d="M154.283 1403.14 Q150.672 1403.14 148.843 1406.71 Q147.038 1410.25 147.038 1417.38 Q147.038 1424.49 148.843 1428.05 Q150.672 1431.59 154.283 1431.59 Q157.917 1431.59 159.723 1428.05 Q161.552 1424.49 161.552 1417.38 Q161.552 1410.25 159.723 1406.71 Q157.917 1403.14 154.283 1403.14 M154.283 1399.44 Q160.093 1399.44 163.149 1404.05 Q166.227 1408.63 166.227 1417.38 Q166.227 1426.11 163.149 1430.71 Q160.093 1435.3 154.283 1435.3 Q148.473 1435.3 145.394 1430.71 Q142.339 1426.11 142.339 1417.38 Q142.339 1408.63 145.394 1404.05 Q148.473 1399.44 154.283 1399.44 Z" fill="#000000" fill-rule="nonzero" fill-opacity="1"></path><path clip-path="url(#clip950)" d="M166.227 1393.54 L190.339 1393.54 L190.339 1396.74 L166.227 1396.74 L166.227 1393.54 Z" fill="#000000" fill-rule="nonzero" fill-opacity="1"></path><path clip-path="url(#clip950)" d="M199.197 1404.02 L205.404 1404.02 L205.404 1382.59 L198.652 1383.95 L198.652 1380.49 L205.366 1379.13 L209.166 1379.13 L209.166 1404.02 L215.372 1404.02 L215.372 1407.21 L199.197 1407.21 L199.197 1404.02 Z" fill="#000000" fill-rule="nonzero" fill-opacity="1"></path><path clip-path="url(#clip950)" d="M144.667 1089.78 L152.305 1089.78 L152.305 1063.41 L143.995 1065.08 L143.995 1060.82 L152.259 1059.15 L156.935 1059.15 L156.935 1089.78 L164.574 1089.78 L164.574 1093.71 L144.667 1093.71 L144.667 1089.78 Z" fill="#000000" fill-rule="nonzero" fill-opacity="1"></path><path clip-path="url(#clip950)" d="M184.018 1062.23 Q180.407 1062.23 178.578 1065.79 Q176.773 1069.34 176.773 1076.47 Q176.773 1083.57 178.578 1087.14 Q180.407 1090.68 184.018 1090.68 Q187.652 1090.68 189.458 1087.14 Q191.287 1083.57 191.287 1076.47 Q191.287 1069.34 189.458 1065.79 Q187.652 1062.23 184.018 1062.23 M184.018 1058.53 Q189.828 1058.53 192.884 1063.13 Q195.963 1067.72 195.963 1076.47 Q195.963 1085.19 192.884 1089.8 Q189.828 1094.38 184.018 1094.38 Q178.208 1094.38 175.129 1089.8 Q172.074 1085.19 172.074 1076.47 Q172.074 1067.72 175.129 1063.13 Q178.208 1058.53 184.018 1058.53 Z" fill="#000000" fill-rule="nonzero" fill-opacity="1"></path><path clip-path="url(#clip950)" d="M205.667 1040.72 Q202.733 1040.72 201.248 1043.62 Q199.781 1046.5 199.781 1052.29 Q199.781 1058.06 201.248 1060.96 Q202.733 1063.84 205.667 1063.84 Q208.62 1063.84 210.087 1060.96 Q211.573 1058.06 211.573 1052.29 Q211.573 1046.5 210.087 1043.62 Q208.62 1040.72 205.667 1040.72 M205.667 1037.71 Q210.388 1037.71 212.871 1041.46 Q215.372 1045.18 215.372 1052.29 Q215.372 1059.38 212.871 1063.12 Q210.388 1066.85 205.667 1066.85 Q200.947 1066.85 198.445 1063.12 Q195.963 1059.38 195.963 1052.29 Q195.963 1045.18 198.445 1041.46 Q200.947 1037.71 205.667 1037.71 Z" fill="#000000" fill-rule="nonzero" fill-opacity="1"></path><path clip-path="url(#clip950)" d="M147.356 748.863 L154.995 748.863 L154.995 722.497 L146.685 724.164 L146.685 719.905 L154.949 718.238 L159.624 718.238 L159.624 748.863 L167.263 748.863 L167.263 752.798 L147.356 752.798 L147.356 748.863 Z" fill="#000000" fill-rule="nonzero" fill-opacity="1"></path><path clip-path="url(#clip950)" d="M186.708 721.317 Q183.097 721.317 181.268 724.881 Q179.462 728.423 179.462 735.553 Q179.462 742.659 181.268 746.224 Q183.097 749.766 186.708 749.766 Q190.342 749.766 192.147 746.224 Q193.976 742.659 193.976 735.553 Q193.976 728.423 192.147 724.881 Q190.342 721.317 186.708 721.317 M186.708 717.613 Q192.518 717.613 195.573 722.219 Q198.652 726.803 198.652 735.553 Q198.652 744.279 195.573 748.886 Q192.518 753.469 186.708 753.469 Q180.898 753.469 177.819 748.886 Q174.763 744.279 174.763 735.553 Q174.763 726.803 177.819 722.219 Q180.898 717.613 186.708 717.613 Z" fill="#000000" fill-rule="nonzero" fill-opacity="1"></path><path clip-path="url(#clip950)" d="M199.197 722.19 L205.404 722.19 L205.404 700.768 L198.652 702.122 L198.652 698.662 L205.366 697.308 L209.166 697.308 L209.166 722.19 L215.372 722.19 L215.372 725.388 L199.197 725.388 L199.197 722.19 Z" fill="#000000" fill-rule="nonzero" fill-opacity="1"></path><path clip-path="url(#clip950)" d="M146.246 407.95 L153.885 407.95 L153.885 381.584 L145.575 383.251 L145.575 378.991 L153.839 377.325 L158.515 377.325 L158.515 407.95 L166.154 407.95 L166.154 411.885 L146.246 411.885 L146.246 407.95 Z" fill="#000000" fill-rule="nonzero" fill-opacity="1"></path><path clip-path="url(#clip950)" d="M185.598 380.404 Q181.987 380.404 180.158 383.968 Q178.353 387.51 178.353 394.64 Q178.353 401.746 180.158 405.311 Q181.987 408.852 185.598 408.852 Q189.232 408.852 191.038 405.311 Q192.867 401.746 192.867 394.64 Q192.867 387.51 191.038 383.968 Q189.232 380.404 185.598 380.404 M185.598 376.7 Q191.408 376.7 194.464 381.306 Q197.542 385.89 197.542 394.64 Q197.542 403.366 194.464 407.973 Q191.408 412.556 185.598 412.556 Q179.788 412.556 176.709 407.973 Q173.654 403.366 173.654 394.64 Q173.654 385.89 176.709 381.306 Q179.788 376.7 185.598 376.7 Z" fill="#000000" fill-rule="nonzero" fill-opacity="1"></path><path clip-path="url(#clip950)" d="M202.113 381.277 L215.372 381.277 L215.372 384.474 L197.542 384.474 L197.542 381.277 Q199.705 379.039 203.429 375.277 Q207.172 371.497 208.131 370.406 Q209.956 368.356 210.67 366.946 Q211.404 365.516 211.404 364.143 Q211.404 361.905 209.824 360.495 Q208.263 359.084 205.743 359.084 Q203.956 359.084 201.962 359.705 Q199.987 360.325 197.73 361.585 L197.73 357.749 Q200.025 356.827 202.019 356.357 Q204.012 355.887 205.667 355.887 Q210.031 355.887 212.626 358.068 Q215.222 360.25 215.222 363.899 Q215.222 365.629 214.563 367.19 Q213.924 368.732 212.212 370.839 Q211.742 371.384 209.222 373.999 Q206.702 376.594 202.113 381.277 Z" fill="#000000" fill-rule="nonzero" fill-opacity="1"></path><path clip-path="url(#clip950)" d="M145.588 67.0365 L153.227 67.0365 L153.227 40.6709 L144.917 42.3376 L144.917 38.0784 L153.181 36.4117 L157.857 36.4117 L157.857 67.0365 L165.495 67.0365 L165.495 70.9717 L145.588 70.9717 L145.588 67.0365 Z" fill="#000000" fill-rule="nonzero" fill-opacity="1"></path><path clip-path="url(#clip950)" d="M184.94 39.4904 Q181.329 39.4904 179.5 43.0552 Q177.694 46.5968 177.694 53.7264 Q177.694 60.8329 179.5 64.3977 Q181.329 67.9393 184.94 67.9393 Q188.574 67.9393 190.38 64.3977 Q192.208 60.8329 192.208 53.7264 Q192.208 46.5968 190.38 43.0552 Q188.574 39.4904 184.94 39.4904 M184.94 35.7867 Q190.75 35.7867 193.805 40.3932 Q196.884 44.9765 196.884 53.7264 Q196.884 62.4532 193.805 67.0597 Q190.75 71.643 184.94 71.643 Q179.13 71.643 176.051 67.0597 Q172.995 62.4532 172.995 53.7264 Q172.995 44.9765 176.051 40.3932 Q179.13 35.7867 184.94 35.7867 Z" fill="#000000" fill-rule="nonzero" fill-opacity="1"></path><path clip-path="url(#clip950)" d="M209.579 28.421 Q212.307 29.0041 213.83 30.8472 Q215.372 32.6904 215.372 35.3987 Q215.372 39.5552 212.513 41.831 Q209.655 44.1067 204.388 44.1067 Q202.621 44.1067 200.74 43.7494 Q198.878 43.4108 196.884 42.7149 L196.884 39.0474 Q198.464 39.969 200.345 40.4392 Q202.226 40.9094 204.276 40.9094 Q207.849 40.9094 209.711 39.4988 Q211.592 38.0882 211.592 35.3987 Q211.592 32.9161 209.843 31.5243 Q208.112 30.1137 205.009 30.1137 L201.737 30.1137 L201.737 26.9916 L205.16 26.9916 Q207.962 26.9916 209.448 25.882 Q210.934 24.7535 210.934 22.6471 Q210.934 20.4842 209.391 19.3369 Q207.868 18.1708 205.009 18.1708 Q203.448 18.1708 201.661 18.5093 Q199.875 18.8479 197.73 19.5626 L197.73 16.1772 Q199.893 15.5753 201.774 15.2744 Q203.674 14.9735 205.348 14.9735 Q209.673 14.9735 212.194 16.9483 Q214.714 18.9043 214.714 22.2521 Q214.714 24.5843 213.379 26.2017 Q212.043 27.8004 209.579 28.421 Z" fill="#000000" fill-rule="nonzero" fill-opacity="1"></path><path clip-path="url(#clip950)" d="M16.4842 858.899 L16.4842 818.7 L21.895 818.7 L21.895 835.569 L64.0042 835.569 L64.0042 842.03 L21.895 842.03 L21.895 858.899 L16.4842 858.899 Z" fill="#000000" fill-rule="nonzero" fill-opacity="1"></path><path clip-path="url(#clip950)" d="M28.3562 814.753 L28.3562 808.896 L64.0042 808.896 L64.0042 814.753 L28.3562 814.753 M14.479 814.753 L14.479 808.896 L21.895 808.896 L21.895 814.753 L14.479 814.753 Z" fill="#000000" fill-rule="nonzero" fill-opacity="1"></path><path clip-path="url(#clip950)" d="M35.1993 768.888 Q31.2526 766.692 29.3747 763.636 Q27.4968 760.581 27.4968 756.443 Q27.4968 750.873 31.4117 747.849 Q35.2948 744.825 42.4881 744.825 L64.0042 744.825 L64.0042 750.714 L42.679 750.714 Q37.5546 750.714 35.072 752.528 Q32.5894 754.342 32.5894 758.066 Q32.5894 762.618 35.6131 765.259 Q38.6368 767.901 43.8567 767.901 L64.0042 767.901 L64.0042 773.789 L42.679 773.789 Q37.5228 773.789 35.072 775.604 Q32.5894 777.418 32.5894 781.206 Q32.5894 785.693 35.6449 788.335 Q38.6686 790.977 43.8567 790.977 L64.0042 790.977 L64.0042 796.865 L28.3562 796.865 L28.3562 790.977 L33.8944 790.977 Q30.616 788.972 29.0564 786.171 Q27.4968 783.37 27.4968 779.519 Q27.4968 775.636 29.4702 772.93 Q31.4436 770.193 35.1993 768.888 Z" fill="#000000" fill-rule="nonzero" fill-opacity="1"></path><path clip-path="url(#clip950)" d="M44.7161 702.653 L47.5806 702.653 L47.5806 729.58 Q53.6281 729.198 56.8109 725.951 Q59.9619 722.673 59.9619 716.848 Q59.9619 713.474 59.1344 710.323 Q58.3069 707.141 56.6518 704.021 L62.1899 704.021 Q63.5267 707.172 64.227 710.483 Q64.9272 713.793 64.9272 717.198 Q64.9272 725.728 59.9619 730.725 Q54.9967 735.691 46.5303 735.691 Q37.7774 735.691 32.6531 730.98 Q27.4968 726.238 27.4968 718.217 Q27.4968 711.024 32.1438 706.854 Q36.7589 702.653 44.7161 702.653 M42.9973 708.509 Q38.1912 708.573 35.3266 711.215 Q32.4621 713.825 32.4621 718.153 Q32.4621 723.055 35.2312 726.015 Q38.0002 728.943 43.0292 729.389 L42.9973 708.509 Z" fill="#000000" fill-rule="nonzero" fill-opacity="1"></path><path clip-path="url(#clip950)" d="M14.479 672.861 L14.479 659.366 L19.0304 659.366 L19.0304 667.005 L68.0464 667.005 L68.0464 659.366 L72.5979 659.366 L72.5979 672.861 L14.479 672.861 Z" fill="#000000" fill-rule="nonzero" fill-opacity="1"></path><path clip-path="url(#clip950)" d="M29.4065 624.164 L34.9447 624.164 Q33.6716 626.646 33.035 629.32 Q32.3984 631.993 32.3984 634.858 Q32.3984 639.218 33.7352 641.415 Q35.072 643.579 37.7456 643.579 Q39.7826 643.579 40.9603 642.019 Q42.1061 640.46 43.1565 635.749 L43.6021 633.744 Q44.9389 627.506 47.3897 624.896 Q49.8086 622.254 54.1691 622.254 Q59.1344 622.254 62.0308 626.201 Q64.9272 630.115 64.9272 636.99 Q64.9272 639.855 64.3543 642.974 Q63.8132 646.062 62.6992 649.499 L56.6518 649.499 Q58.3387 646.253 59.198 643.102 Q60.0256 639.95 60.0256 636.863 Q60.0256 632.725 58.6251 630.497 Q57.1929 628.269 54.6147 628.269 Q52.2276 628.269 50.9545 629.893 Q49.6813 631.484 48.5037 636.927 L48.0262 638.964 Q46.8804 644.406 44.5251 646.825 Q42.138 649.244 38.0002 649.244 Q32.9713 649.244 30.2341 645.68 Q27.4968 642.115 27.4968 635.558 Q27.4968 632.312 27.9743 629.447 Q28.4517 626.582 29.4065 624.164 Z" fill="#000000" fill-rule="nonzero" fill-opacity="1"></path><path clip-path="url(#clip950)" d="M14.479 599.242 L72.5979 599.242 L72.5979 612.737 L68.0464 612.737 L68.0464 605.13 L19.0304 605.13 L19.0304 612.737 L14.479 612.737 L14.479 599.242 Z" fill="#000000" fill-rule="nonzero" fill-opacity="1"></path><polyline clip-path="url(#clip952)" style="stroke:#009af9; stroke-linecap:round; stroke-linejoin:round; stroke-width:4; stroke-opacity:1; fill:none" points="251.372,831.508 457.88,801.887 671.649,802.838 881.656,800.381 1091.93,796.197 1302.05,761.604 1512.2,710.766 1722.34,627.004 1932.48,500.327 2142.62,350.574 2352.76,188.35 "></polyline>
<circle clip-path="url(#clip952)" cx="251.372" cy="831.508" r="14.4" fill="#009af9" fill-rule="evenodd" fill-opacity="1" stroke="#000000" stroke-opacity="1" stroke-width="3.2"></circle>
<circle clip-path="url(#clip952)" cx="457.88" cy="801.887" r="14.4" fill="#009af9" fill-rule="evenodd" fill-opacity="1" stroke="#000000" stroke-opacity="1" stroke-width="3.2"></circle>
<circle clip-path="url(#clip952)" cx="671.649" cy="802.838" r="14.4" fill="#009af9" fill-rule="evenodd" fill-opacity="1" stroke="#000000" stroke-opacity="1" stroke-width="3.2"></circle>
<circle clip-path="url(#clip952)" cx="881.656" cy="800.381" r="14.4" fill="#009af9" fill-rule="evenodd" fill-opacity="1" stroke="#000000" stroke-opacity="1" stroke-width="3.2"></circle>
<circle clip-path="url(#clip952)" cx="1091.93" cy="796.197" r="14.4" fill="#009af9" fill-rule="evenodd" fill-opacity="1" stroke="#000000" stroke-opacity="1" stroke-width="3.2"></circle>
<circle clip-path="url(#clip952)" cx="1302.05" cy="761.604" r="14.4" fill="#009af9" fill-rule="evenodd" fill-opacity="1" stroke="#000000" stroke-opacity="1" stroke-width="3.2"></circle>
<circle clip-path="url(#clip952)" cx="1512.2" cy="710.766" r="14.4" fill="#009af9" fill-rule="evenodd" fill-opacity="1" stroke="#000000" stroke-opacity="1" stroke-width="3.2"></circle>
<circle clip-path="url(#clip952)" cx="1722.34" cy="627.004" r="14.4" fill="#009af9" fill-rule="evenodd" fill-opacity="1" stroke="#000000" stroke-opacity="1" stroke-width="3.2"></circle>
<circle clip-path="url(#clip952)" cx="1932.48" cy="500.327" r="14.4" fill="#009af9" fill-rule="evenodd" fill-opacity="1" stroke="#000000" stroke-opacity="1" stroke-width="3.2"></circle>
<circle clip-path="url(#clip952)" cx="2142.62" cy="350.574" r="14.4" fill="#009af9" fill-rule="evenodd" fill-opacity="1" stroke="#000000" stroke-opacity="1" stroke-width="3.2"></circle>
<circle clip-path="url(#clip952)" cx="2352.76" cy="188.35" r="14.4" fill="#009af9" fill-rule="evenodd" fill-opacity="1" stroke="#000000" stroke-opacity="1" stroke-width="3.2"></circle>
<polyline clip-path="url(#clip952)" style="stroke:#e26f46; stroke-linecap:round; stroke-linejoin:round; stroke-width:4; stroke-opacity:1; fill:none" points="251.372,561.456 457.88,560.045 671.649,560.543 881.656,559.13 1091.93,547.77 1302.05,548.346 1512.2,548.127 1722.34,546.235 1932.48,539.533 2142.62,514.901 2352.76,473.108 "></polyline>
<circle clip-path="url(#clip952)" cx="251.372" cy="561.456" r="14.4" fill="#e26f46" fill-rule="evenodd" fill-opacity="1" stroke="#000000" stroke-opacity="1" stroke-width="3.2"></circle>
<circle clip-path="url(#clip952)" cx="457.88" cy="560.045" r="14.4" fill="#e26f46" fill-rule="evenodd" fill-opacity="1" stroke="#000000" stroke-opacity="1" stroke-width="3.2"></circle>
<circle clip-path="url(#clip952)" cx="671.649" cy="560.543" r="14.4" fill="#e26f46" fill-rule="evenodd" fill-opacity="1" stroke="#000000" stroke-opacity="1" stroke-width="3.2"></circle>
<circle clip-path="url(#clip952)" cx="881.656" cy="559.13" r="14.4" fill="#e26f46" fill-rule="evenodd" fill-opacity="1" stroke="#000000" stroke-opacity="1" stroke-width="3.2"></circle>
<circle clip-path="url(#clip952)" cx="1091.93" cy="547.77" r="14.4" fill="#e26f46" fill-rule="evenodd" fill-opacity="1" stroke="#000000" stroke-opacity="1" stroke-width="3.2"></circle>
<circle clip-path="url(#clip952)" cx="1302.05" cy="548.346" r="14.4" fill="#e26f46" fill-rule="evenodd" fill-opacity="1" stroke="#000000" stroke-opacity="1" stroke-width="3.2"></circle>
<circle clip-path="url(#clip952)" cx="1512.2" cy="548.127" r="14.4" fill="#e26f46" fill-rule="evenodd" fill-opacity="1" stroke="#000000" stroke-opacity="1" stroke-width="3.2"></circle>
<circle clip-path="url(#clip952)" cx="1722.34" cy="546.235" r="14.4" fill="#e26f46" fill-rule="evenodd" fill-opacity="1" stroke="#000000" stroke-opacity="1" stroke-width="3.2"></circle>
<circle clip-path="url(#clip952)" cx="1932.48" cy="539.533" r="14.4" fill="#e26f46" fill-rule="evenodd" fill-opacity="1" stroke="#000000" stroke-opacity="1" stroke-width="3.2"></circle>
<circle clip-path="url(#clip952)" cx="2142.62" cy="514.901" r="14.4" fill="#e26f46" fill-rule="evenodd" fill-opacity="1" stroke="#000000" stroke-opacity="1" stroke-width="3.2"></circle>
<circle clip-path="url(#clip952)" cx="2352.76" cy="473.108" r="14.4" fill="#e26f46" fill-rule="evenodd" fill-opacity="1" stroke="#000000" stroke-opacity="1" stroke-width="3.2"></circle>
<polyline clip-path="url(#clip952)" style="stroke:#3da44d; stroke-linecap:round; stroke-linejoin:round; stroke-width:4; stroke-opacity:1; fill:none" points="251.372,1106.53 457.88,1103.98 671.649,1104.03 881.656,1103.56 1091.93,1101.5 1302.05,1103.9 1512.2,1091.83 1722.34,1044.63 1932.48,938.269 2142.62,781.049 2352.76,611.486 "></polyline>
<circle clip-path="url(#clip952)" cx="251.372" cy="1106.53" r="14.4" fill="#3da44d" fill-rule="evenodd" fill-opacity="1" stroke="#000000" stroke-opacity="1" stroke-width="3.2"></circle>
<circle clip-path="url(#clip952)" cx="457.88" cy="1103.98" r="14.4" fill="#3da44d" fill-rule="evenodd" fill-opacity="1" stroke="#000000" stroke-opacity="1" stroke-width="3.2"></circle>
<circle clip-path="url(#clip952)" cx="671.649" cy="1104.03" r="14.4" fill="#3da44d" fill-rule="evenodd" fill-opacity="1" stroke="#000000" stroke-opacity="1" stroke-width="3.2"></circle>
<circle clip-path="url(#clip952)" cx="881.656" cy="1103.56" r="14.4" fill="#3da44d" fill-rule="evenodd" fill-opacity="1" stroke="#000000" stroke-opacity="1" stroke-width="3.2"></circle>
<circle clip-path="url(#clip952)" cx="1091.93" cy="1101.5" r="14.4" fill="#3da44d" fill-rule="evenodd" fill-opacity="1" stroke="#000000" stroke-opacity="1" stroke-width="3.2"></circle>
<circle clip-path="url(#clip952)" cx="1302.05" cy="1103.9" r="14.4" fill="#3da44d" fill-rule="evenodd" fill-opacity="1" stroke="#000000" stroke-opacity="1" stroke-width="3.2"></circle>
<circle clip-path="url(#clip952)" cx="1512.2" cy="1091.83" r="14.4" fill="#3da44d" fill-rule="evenodd" fill-opacity="1" stroke="#000000" stroke-opacity="1" stroke-width="3.2"></circle>
<circle clip-path="url(#clip952)" cx="1722.34" cy="1044.63" r="14.4" fill="#3da44d" fill-rule="evenodd" fill-opacity="1" stroke="#000000" stroke-opacity="1" stroke-width="3.2"></circle>
<circle clip-path="url(#clip952)" cx="1932.48" cy="938.269" r="14.4" fill="#3da44d" fill-rule="evenodd" fill-opacity="1" stroke="#000000" stroke-opacity="1" stroke-width="3.2"></circle>
<circle clip-path="url(#clip952)" cx="2142.62" cy="781.049" r="14.4" fill="#3da44d" fill-rule="evenodd" fill-opacity="1" stroke="#000000" stroke-opacity="1" stroke-width="3.2"></circle>
<circle clip-path="url(#clip952)" cx="2352.76" cy="611.486" r="14.4" fill="#3da44d" fill-rule="evenodd" fill-opacity="1" stroke="#000000" stroke-opacity="1" stroke-width="3.2"></circle>
<path clip-path="url(#clip950)" d="M321.418 300.059 L948.823 300.059 L948.823 92.6992 L321.418 92.6992  Z" fill="#ffffff" fill-rule="evenodd" fill-opacity="1"></path>
<polyline clip-path="url(#clip950)" style="stroke:#000000; stroke-linecap:round; stroke-linejoin:round; stroke-width:4; stroke-opacity:1; fill:none" points="321.418,300.059 948.823,300.059 948.823,92.6992 321.418,92.6992 321.418,300.059 "></polyline>
<polyline clip-path="url(#clip950)" style="stroke:#009af9; stroke-linecap:round; stroke-linejoin:round; stroke-width:4; stroke-opacity:1; fill:none" points="344.767,144.539 484.859,144.539 "></polyline>
<circle clip-path="url(#clip950)" cx="414.813" cy="144.539" r="19.4573" fill="#009af9" fill-rule="evenodd" fill-opacity="1" stroke="#000000" stroke-opacity="1" stroke-width="4.55111"></circle>
<path clip-path="url(#clip950)" d="M536.078 129.921 L536.078 134.852 Q533.717 132.653 531.032 131.565 Q528.37 130.477 525.361 130.477 Q519.435 130.477 516.287 134.111 Q513.138 137.722 513.138 144.574 Q513.138 151.403 516.287 155.037 Q519.435 158.648 525.361 158.648 Q528.37 158.648 531.032 157.56 Q533.717 156.472 536.078 154.273 L536.078 159.157 Q533.624 160.824 530.87 161.657 Q528.138 162.49 525.083 162.49 Q517.236 162.49 512.722 157.699 Q508.208 152.884 508.208 144.574 Q508.208 136.241 512.722 131.449 Q517.236 126.634 525.083 126.634 Q528.185 126.634 530.916 127.468 Q533.671 128.278 536.078 129.921 Z" fill="#000000" fill-rule="nonzero" fill-opacity="1"></path><path clip-path="url(#clip950)" d="M547.976 131.102 L547.976 144.088 L553.856 144.088 Q557.12 144.088 558.902 142.398 Q560.685 140.708 560.685 137.583 Q560.685 134.481 558.902 132.792 Q557.12 131.102 553.856 131.102 L547.976 131.102 M543.3 127.259 L553.856 127.259 Q559.666 127.259 562.629 129.898 Q565.615 132.514 565.615 137.583 Q565.615 142.699 562.629 145.315 Q559.666 147.93 553.856 147.93 L547.976 147.93 L547.976 161.819 L543.3 161.819 L543.3 127.259 Z" fill="#000000" fill-rule="nonzero" fill-opacity="1"></path><path clip-path="url(#clip950)" d="M571.356 127.259 L576.055 127.259 L576.055 148.254 Q576.055 153.81 578.069 156.264 Q580.083 158.694 584.596 158.694 Q589.087 158.694 591.101 156.264 Q593.115 153.81 593.115 148.254 L593.115 127.259 L597.814 127.259 L597.814 148.833 Q597.814 155.592 594.458 159.041 Q591.124 162.49 584.596 162.49 Q578.046 162.49 574.689 159.041 Q571.356 155.592 571.356 148.833 L571.356 127.259 Z" fill="#000000" fill-rule="nonzero" fill-opacity="1"></path><polyline clip-path="url(#clip950)" style="stroke:#e26f46; stroke-linecap:round; stroke-linejoin:round; stroke-width:4; stroke-opacity:1; fill:none" points="344.767,196.379 484.859,196.379 "></polyline>
<circle clip-path="url(#clip950)" cx="414.813" cy="196.379" r="19.4573" fill="#e26f46" fill-rule="evenodd" fill-opacity="1" stroke="#000000" stroke-opacity="1" stroke-width="4.55111"></circle>
<path clip-path="url(#clip950)" d="M533.763 208.729 L533.763 199.446 L526.125 199.446 L526.125 195.604 L538.393 195.604 L538.393 210.442 Q535.685 212.363 532.421 213.358 Q529.157 214.33 525.453 214.33 Q517.351 214.33 512.768 209.608 Q508.208 204.863 508.208 196.414 Q508.208 187.942 512.768 183.22 Q517.351 178.474 525.453 178.474 Q528.833 178.474 531.865 179.308 Q534.921 180.141 537.49 181.761 L537.49 186.738 Q534.898 184.539 531.981 183.428 Q529.064 182.317 525.847 182.317 Q519.504 182.317 516.31 185.858 Q513.138 189.4 513.138 196.414 Q513.138 203.405 516.31 206.946 Q519.504 210.488 525.847 210.488 Q528.324 210.488 530.268 210.071 Q532.212 209.631 533.763 208.729 Z" fill="#000000" fill-rule="nonzero" fill-opacity="1"></path><path clip-path="url(#clip950)" d="M551.611 182.942 L551.611 195.928 L557.49 195.928 Q560.754 195.928 562.536 194.238 Q564.319 192.548 564.319 189.423 Q564.319 186.321 562.536 184.632 Q560.754 182.942 557.49 182.942 L551.611 182.942 M546.935 179.099 L557.49 179.099 Q563.3 179.099 566.263 181.738 Q569.249 184.354 569.249 189.423 Q569.249 194.539 566.263 197.155 Q563.3 199.77 557.49 199.77 L551.611 199.77 L551.611 213.659 L546.935 213.659 L546.935 179.099 Z" fill="#000000" fill-rule="nonzero" fill-opacity="1"></path><path clip-path="url(#clip950)" d="M574.99 179.099 L579.689 179.099 L579.689 200.094 Q579.689 205.65 581.703 208.104 Q583.717 210.534 588.231 210.534 Q592.721 210.534 594.735 208.104 Q596.749 205.65 596.749 200.094 L596.749 179.099 L601.448 179.099 L601.448 200.673 Q601.448 207.432 598.092 210.881 Q594.758 214.33 588.231 214.33 Q581.68 214.33 578.323 210.881 Q574.99 207.432 574.99 200.673 L574.99 179.099 Z" fill="#000000" fill-rule="nonzero" fill-opacity="1"></path><path clip-path="url(#clip950)" d="M636.842 183.706 L630.499 200.905 L643.207 200.905 L636.842 183.706 M634.203 179.099 L639.504 179.099 L652.675 213.659 L647.814 213.659 L644.666 204.793 L629.087 204.793 L625.939 213.659 L621.008 213.659 L634.203 179.099 Z" fill="#000000" fill-rule="nonzero" fill-opacity="1"></path><path clip-path="url(#clip950)" d="M672.559 191.715 Q671.841 191.298 670.985 191.113 Q670.152 190.905 669.133 190.905 Q665.522 190.905 663.578 193.266 Q661.656 195.604 661.656 200.002 L661.656 213.659 L657.374 213.659 L657.374 187.733 L661.656 187.733 L661.656 191.761 Q662.999 189.4 665.152 188.266 Q667.304 187.108 670.383 187.108 Q670.823 187.108 671.355 187.178 Q671.888 187.224 672.536 187.34 L672.559 191.715 Z" fill="#000000" fill-rule="nonzero" fill-opacity="1"></path><path clip-path="url(#clip950)" d="M691.216 191.715 Q690.499 191.298 689.642 191.113 Q688.809 190.905 687.79 190.905 Q684.179 190.905 682.235 193.266 Q680.314 195.604 680.314 200.002 L680.314 213.659 L676.031 213.659 L676.031 187.733 L680.314 187.733 L680.314 191.761 Q681.656 189.4 683.809 188.266 Q685.962 187.108 689.04 187.108 Q689.48 187.108 690.013 187.178 Q690.545 187.224 691.193 187.34 L691.216 191.715 Z" fill="#000000" fill-rule="nonzero" fill-opacity="1"></path><path clip-path="url(#clip950)" d="M707.466 200.627 Q702.304 200.627 700.313 201.807 Q698.323 202.988 698.323 205.835 Q698.323 208.104 699.804 209.446 Q701.309 210.766 703.878 210.766 Q707.42 210.766 709.549 208.266 Q711.702 205.743 711.702 201.576 L711.702 200.627 L707.466 200.627 M715.961 198.868 L715.961 213.659 L711.702 213.659 L711.702 209.724 Q710.244 212.085 708.068 213.219 Q705.892 214.33 702.744 214.33 Q698.762 214.33 696.401 212.108 Q694.063 209.863 694.063 206.113 Q694.063 201.738 696.98 199.516 Q699.92 197.294 705.73 197.294 L711.702 197.294 L711.702 196.877 Q711.702 193.937 709.758 192.34 Q707.837 190.719 704.341 190.719 Q702.119 190.719 700.012 191.252 Q697.906 191.784 695.962 192.849 L695.962 188.914 Q698.3 188.011 700.499 187.571 Q702.698 187.108 704.781 187.108 Q710.406 187.108 713.184 190.025 Q715.961 192.942 715.961 198.868 Z" fill="#000000" fill-rule="nonzero" fill-opacity="1"></path><path clip-path="url(#clip950)" d="M735.522 216.067 Q733.716 220.696 732.003 222.108 Q730.29 223.52 727.42 223.52 L724.017 223.52 L724.017 219.955 L726.517 219.955 Q728.276 219.955 729.248 219.122 Q730.221 218.289 731.401 215.187 L732.165 213.243 L721.679 187.733 L726.193 187.733 L734.295 208.011 L742.397 187.733 L746.91 187.733 L735.522 216.067 Z" fill="#000000" fill-rule="nonzero" fill-opacity="1"></path><path clip-path="url(#clip950)" d="M749.804 198.775 L762.281 198.775 L762.281 202.571 L749.804 202.571 L749.804 198.775 Z" fill="#000000" fill-rule="nonzero" fill-opacity="1"></path><path clip-path="url(#clip950)" d="M787.674 200.719 Q787.674 196.02 785.73 193.358 Q783.808 190.673 780.429 190.673 Q777.049 190.673 775.105 193.358 Q773.183 196.02 773.183 200.719 Q773.183 205.418 775.105 208.104 Q777.049 210.766 780.429 210.766 Q783.808 210.766 785.73 208.104 Q787.674 205.418 787.674 200.719 M773.183 191.669 Q774.526 189.354 776.563 188.243 Q778.623 187.108 781.47 187.108 Q786.193 187.108 789.132 190.858 Q792.095 194.608 792.095 200.719 Q792.095 206.831 789.132 210.58 Q786.193 214.33 781.47 214.33 Q778.623 214.33 776.563 213.219 Q774.526 212.085 773.183 209.77 L773.183 213.659 L768.901 213.659 L768.901 177.641 L773.183 177.641 L773.183 191.669 Z" fill="#000000" fill-rule="nonzero" fill-opacity="1"></path><path clip-path="url(#clip950)" d="M810.938 200.627 Q805.776 200.627 803.785 201.807 Q801.794 202.988 801.794 205.835 Q801.794 208.104 803.276 209.446 Q804.78 210.766 807.35 210.766 Q810.892 210.766 813.021 208.266 Q815.174 205.743 815.174 201.576 L815.174 200.627 L810.938 200.627 M819.433 198.868 L819.433 213.659 L815.174 213.659 L815.174 209.724 Q813.716 212.085 811.54 213.219 Q809.364 214.33 806.216 214.33 Q802.234 214.33 799.873 212.108 Q797.535 209.863 797.535 206.113 Q797.535 201.738 800.452 199.516 Q803.392 197.294 809.202 197.294 L815.174 197.294 L815.174 196.877 Q815.174 193.937 813.229 192.34 Q811.308 190.719 807.813 190.719 Q805.591 190.719 803.484 191.252 Q801.378 191.784 799.433 192.849 L799.433 188.914 Q801.771 188.011 803.97 187.571 Q806.169 187.108 808.253 187.108 Q813.878 187.108 816.655 190.025 Q819.433 192.942 819.433 198.868 Z" fill="#000000" fill-rule="nonzero" fill-opacity="1"></path><path clip-path="url(#clip950)" d="M844.734 188.497 L844.734 192.525 Q842.928 191.599 840.984 191.136 Q839.04 190.673 836.956 190.673 Q833.785 190.673 832.188 191.645 Q830.614 192.618 830.614 194.562 Q830.614 196.044 831.748 196.9 Q832.882 197.733 836.308 198.497 L837.766 198.821 Q842.303 199.794 844.202 201.576 Q846.123 203.335 846.123 206.506 Q846.123 210.118 843.252 212.224 Q840.405 214.33 835.405 214.33 Q833.322 214.33 831.053 213.914 Q828.808 213.52 826.308 212.71 L826.308 208.312 Q828.669 209.539 830.961 210.164 Q833.253 210.766 835.498 210.766 Q838.507 210.766 840.127 209.747 Q841.748 208.706 841.748 206.831 Q841.748 205.094 840.567 204.168 Q839.41 203.243 835.452 202.386 L833.97 202.039 Q830.012 201.206 828.253 199.493 Q826.493 197.756 826.493 194.747 Q826.493 191.09 829.086 189.099 Q831.678 187.108 836.447 187.108 Q838.808 187.108 840.891 187.456 Q842.975 187.803 844.734 188.497 Z" fill="#000000" fill-rule="nonzero" fill-opacity="1"></path><path clip-path="url(#clip950)" d="M875.081 199.631 L875.081 201.715 L855.498 201.715 Q855.776 206.113 858.137 208.428 Q860.521 210.719 864.757 210.719 Q867.211 210.719 869.502 210.118 Q871.817 209.516 874.086 208.312 L874.086 212.34 Q871.794 213.312 869.387 213.821 Q866.979 214.33 864.502 214.33 Q858.299 214.33 854.664 210.719 Q851.053 207.108 851.053 200.951 Q851.053 194.585 854.479 190.858 Q857.928 187.108 863.762 187.108 Q868.993 187.108 872.025 190.488 Q875.081 193.844 875.081 199.631 M870.822 198.381 Q870.775 194.886 868.854 192.803 Q866.956 190.719 863.808 190.719 Q860.243 190.719 858.09 192.733 Q855.961 194.747 855.637 198.405 L870.822 198.381 Z" fill="#000000" fill-rule="nonzero" fill-opacity="1"></path><path clip-path="url(#clip950)" d="M899.132 191.669 L899.132 177.641 L903.391 177.641 L903.391 213.659 L899.132 213.659 L899.132 209.77 Q897.789 212.085 895.729 213.219 Q893.692 214.33 890.822 214.33 Q886.123 214.33 883.16 210.58 Q880.22 206.831 880.22 200.719 Q880.22 194.608 883.16 190.858 Q886.123 187.108 890.822 187.108 Q893.692 187.108 895.729 188.243 Q897.789 189.354 899.132 191.669 M884.618 200.719 Q884.618 205.418 886.539 208.104 Q888.484 210.766 891.863 210.766 Q895.243 210.766 897.187 208.104 Q899.132 205.418 899.132 200.719 Q899.132 196.02 897.187 193.358 Q895.243 190.673 891.863 190.673 Q888.484 190.673 886.539 193.358 Q884.618 196.02 884.618 200.719 Z" fill="#000000" fill-rule="nonzero" fill-opacity="1"></path><polyline clip-path="url(#clip950)" style="stroke:#3da44d; stroke-linecap:round; stroke-linejoin:round; stroke-width:4; stroke-opacity:1; fill:none" points="344.767,248.219 484.859,248.219 "></polyline>
<circle clip-path="url(#clip950)" cx="414.813" cy="248.219" r="19.4573" fill="#3da44d" fill-rule="evenodd" fill-opacity="1" stroke="#000000" stroke-opacity="1" stroke-width="4.55111"></circle>
<path clip-path="url(#clip950)" d="M533.763 260.569 L533.763 251.286 L526.125 251.286 L526.125 247.444 L538.393 247.444 L538.393 262.282 Q535.685 264.203 532.421 265.198 Q529.157 266.17 525.453 266.17 Q517.351 266.17 512.768 261.448 Q508.208 256.703 508.208 248.254 Q508.208 239.782 512.768 235.06 Q517.351 230.314 525.453 230.314 Q528.833 230.314 531.865 231.148 Q534.921 231.981 537.49 233.601 L537.49 238.578 Q534.898 236.379 531.981 235.268 Q529.064 234.157 525.847 234.157 Q519.504 234.157 516.31 237.698 Q513.138 241.24 513.138 248.254 Q513.138 255.245 516.31 258.786 Q519.504 262.328 525.847 262.328 Q528.324 262.328 530.268 261.911 Q532.212 261.471 533.763 260.569 Z" fill="#000000" fill-rule="nonzero" fill-opacity="1"></path><path clip-path="url(#clip950)" d="M551.611 234.782 L551.611 247.768 L557.49 247.768 Q560.754 247.768 562.536 246.078 Q564.319 244.388 564.319 241.263 Q564.319 238.161 562.536 236.472 Q560.754 234.782 557.49 234.782 L551.611 234.782 M546.935 230.939 L557.49 230.939 Q563.3 230.939 566.263 233.578 Q569.249 236.194 569.249 241.263 Q569.249 246.379 566.263 248.995 Q563.3 251.61 557.49 251.61 L551.611 251.61 L551.611 265.499 L546.935 265.499 L546.935 230.939 Z" fill="#000000" fill-rule="nonzero" fill-opacity="1"></path><path clip-path="url(#clip950)" d="M574.99 230.939 L579.689 230.939 L579.689 251.934 Q579.689 257.49 581.703 259.944 Q583.717 262.374 588.231 262.374 Q592.721 262.374 594.735 259.944 Q596.749 257.49 596.749 251.934 L596.749 230.939 L601.448 230.939 L601.448 252.513 Q601.448 259.272 598.092 262.721 Q594.758 266.17 588.231 266.17 Q581.68 266.17 578.323 262.721 Q574.99 259.272 574.99 252.513 L574.99 230.939 Z" fill="#000000" fill-rule="nonzero" fill-opacity="1"></path><path clip-path="url(#clip950)" d="M625.291 230.939 L629.967 230.939 L629.967 245.546 L645.476 230.939 L651.494 230.939 L634.342 247.05 L652.721 265.499 L646.564 265.499 L629.967 248.856 L629.967 265.499 L625.291 265.499 L625.291 230.939 Z" fill="#000000" fill-rule="nonzero" fill-opacity="1"></path><path clip-path="url(#clip950)" d="M676.008 251.471 L676.008 253.555 L656.425 253.555 Q656.703 257.953 659.064 260.268 Q661.448 262.559 665.684 262.559 Q668.138 262.559 670.429 261.958 Q672.744 261.356 675.013 260.152 L675.013 264.18 Q672.721 265.152 670.314 265.661 Q667.906 266.17 665.429 266.17 Q659.226 266.17 655.591 262.559 Q651.98 258.948 651.98 252.791 Q651.98 246.425 655.406 242.698 Q658.855 238.948 664.689 238.948 Q669.92 238.948 672.952 242.328 Q676.008 245.684 676.008 251.471 M671.749 250.221 Q671.702 246.726 669.781 244.643 Q667.883 242.559 664.735 242.559 Q661.17 242.559 659.017 244.573 Q656.888 246.587 656.564 250.245 L671.749 250.221 Z" fill="#000000" fill-rule="nonzero" fill-opacity="1"></path><path clip-path="url(#clip950)" d="M698.022 243.555 Q697.304 243.138 696.448 242.953 Q695.614 242.745 694.596 242.745 Q690.985 242.745 689.04 245.106 Q687.119 247.444 687.119 251.842 L687.119 265.499 L682.837 265.499 L682.837 239.573 L687.119 239.573 L687.119 243.601 Q688.462 241.24 690.614 240.106 Q692.767 238.948 695.846 238.948 Q696.286 238.948 696.818 239.018 Q697.35 239.064 697.999 239.18 L698.022 243.555 Z" fill="#000000" fill-rule="nonzero" fill-opacity="1"></path><path clip-path="url(#clip950)" d="M723.207 249.851 L723.207 265.499 L718.948 265.499 L718.948 249.99 Q718.948 246.309 717.512 244.481 Q716.077 242.652 713.207 242.652 Q709.758 242.652 707.767 244.851 Q705.776 247.05 705.776 250.846 L705.776 265.499 L701.494 265.499 L701.494 239.573 L705.776 239.573 L705.776 243.601 Q707.304 241.263 709.364 240.106 Q711.448 238.948 714.156 238.948 Q718.624 238.948 720.915 241.726 Q723.207 244.481 723.207 249.851 Z" fill="#000000" fill-rule="nonzero" fill-opacity="1"></path><path clip-path="url(#clip950)" d="M753.878 251.471 L753.878 253.555 L734.295 253.555 Q734.572 257.953 736.934 260.268 Q739.318 262.559 743.554 262.559 Q746.008 262.559 748.299 261.958 Q750.614 261.356 752.883 260.152 L752.883 264.18 Q750.591 265.152 748.184 265.661 Q745.776 266.17 743.299 266.17 Q737.096 266.17 733.461 262.559 Q729.85 258.948 729.85 252.791 Q729.85 246.425 733.276 242.698 Q736.725 238.948 742.559 238.948 Q747.79 238.948 750.822 242.328 Q753.878 245.684 753.878 251.471 M749.619 250.221 Q749.572 246.726 747.651 244.643 Q745.753 242.559 742.605 242.559 Q739.04 242.559 736.887 244.573 Q734.758 246.587 734.434 250.245 L749.619 250.221 Z" fill="#000000" fill-rule="nonzero" fill-opacity="1"></path><path clip-path="url(#clip950)" d="M760.869 229.481 L765.128 229.481 L765.128 265.499 L760.869 265.499 L760.869 229.481 Z" fill="#000000" fill-rule="nonzero" fill-opacity="1"></path><path clip-path="url(#clip950)" d="M771.887 250.615 L784.364 250.615 L784.364 254.411 L771.887 254.411 L771.887 250.615 Z" fill="#000000" fill-rule="nonzero" fill-opacity="1"></path><path clip-path="url(#clip950)" d="M809.757 252.559 Q809.757 247.86 807.813 245.198 Q805.892 242.513 802.512 242.513 Q799.132 242.513 797.188 245.198 Q795.267 247.86 795.267 252.559 Q795.267 257.258 797.188 259.944 Q799.132 262.606 802.512 262.606 Q805.892 262.606 807.813 259.944 Q809.757 257.258 809.757 252.559 M795.267 243.509 Q796.609 241.194 798.646 240.083 Q800.706 238.948 803.554 238.948 Q808.276 238.948 811.216 242.698 Q814.179 246.448 814.179 252.559 Q814.179 258.671 811.216 262.42 Q808.276 266.17 803.554 266.17 Q800.706 266.17 798.646 265.059 Q796.609 263.925 795.267 261.61 L795.267 265.499 L790.984 265.499 L790.984 229.481 L795.267 229.481 L795.267 243.509 Z" fill="#000000" fill-rule="nonzero" fill-opacity="1"></path><path clip-path="url(#clip950)" d="M833.021 252.467 Q827.859 252.467 825.868 253.647 Q823.878 254.828 823.878 257.675 Q823.878 259.944 825.359 261.286 Q826.864 262.606 829.433 262.606 Q832.975 262.606 835.104 260.106 Q837.257 257.583 837.257 253.416 L837.257 252.467 L833.021 252.467 M841.516 250.708 L841.516 265.499 L837.257 265.499 L837.257 261.564 Q835.799 263.925 833.623 265.059 Q831.447 266.17 828.299 266.17 Q824.317 266.17 821.956 263.948 Q819.618 261.703 819.618 257.953 Q819.618 253.578 822.535 251.356 Q825.475 249.134 831.285 249.134 L837.257 249.134 L837.257 248.717 Q837.257 245.777 835.313 244.18 Q833.391 242.559 829.896 242.559 Q827.674 242.559 825.567 243.092 Q823.461 243.624 821.516 244.689 L821.516 240.754 Q823.854 239.851 826.053 239.411 Q828.253 238.948 830.336 238.948 Q835.961 238.948 838.739 241.865 Q841.516 244.782 841.516 250.708 Z" fill="#000000" fill-rule="nonzero" fill-opacity="1"></path><path clip-path="url(#clip950)" d="M866.817 240.337 L866.817 244.365 Q865.012 243.439 863.067 242.976 Q861.123 242.513 859.039 242.513 Q855.868 242.513 854.271 243.485 Q852.697 244.458 852.697 246.402 Q852.697 247.884 853.831 248.74 Q854.965 249.573 858.391 250.337 L859.85 250.661 Q864.387 251.634 866.285 253.416 Q868.206 255.175 868.206 258.346 Q868.206 261.958 865.336 264.064 Q862.488 266.17 857.488 266.17 Q855.405 266.17 853.137 265.754 Q850.891 265.36 848.391 264.55 L848.391 260.152 Q850.752 261.379 853.044 262.004 Q855.336 262.606 857.581 262.606 Q860.59 262.606 862.211 261.587 Q863.831 260.546 863.831 258.671 Q863.831 256.934 862.651 256.008 Q861.493 255.083 857.535 254.226 L856.053 253.879 Q852.095 253.046 850.336 251.333 Q848.577 249.596 848.577 246.587 Q848.577 242.93 851.169 240.939 Q853.762 238.948 858.53 238.948 Q860.891 238.948 862.975 239.296 Q865.058 239.643 866.817 240.337 Z" fill="#000000" fill-rule="nonzero" fill-opacity="1"></path><path clip-path="url(#clip950)" d="M897.164 251.471 L897.164 253.555 L877.581 253.555 Q877.859 257.953 880.22 260.268 Q882.604 262.559 886.84 262.559 Q889.294 262.559 891.586 261.958 Q893.9 261.356 896.169 260.152 L896.169 264.18 Q893.877 265.152 891.47 265.661 Q889.062 266.17 886.586 266.17 Q880.382 266.17 876.748 262.559 Q873.137 258.948 873.137 252.791 Q873.137 246.425 876.562 242.698 Q880.012 238.948 885.845 238.948 Q891.076 238.948 894.109 242.328 Q897.164 245.684 897.164 251.471 M892.905 250.221 Q892.859 246.726 890.937 244.643 Q889.039 242.559 885.891 242.559 Q882.326 242.559 880.174 244.573 Q878.044 246.587 877.72 250.245 L892.905 250.221 Z" fill="#000000" fill-rule="nonzero" fill-opacity="1"></path><path clip-path="url(#clip950)" d="M921.215 243.509 L921.215 229.481 L925.474 229.481 L925.474 265.499 L921.215 265.499 L921.215 261.61 Q919.872 263.925 917.812 265.059 Q915.775 266.17 912.905 266.17 Q908.206 266.17 905.243 262.42 Q902.303 258.671 902.303 252.559 Q902.303 246.448 905.243 242.698 Q908.206 238.948 912.905 238.948 Q915.775 238.948 917.812 240.083 Q919.872 241.194 921.215 243.509 M906.701 252.559 Q906.701 257.258 908.622 259.944 Q910.567 262.606 913.947 262.606 Q917.326 262.606 919.271 259.944 Q921.215 257.258 921.215 252.559 Q921.215 247.86 919.271 245.198 Q917.326 242.513 913.947 242.513 Q910.567 242.513 908.622 245.198 Q906.701 247.86 906.701 252.559 Z" fill="#000000" fill-rule="nonzero" fill-opacity="1"></path></svg>